<?xml version="1.0" standalone="no"?>
<!DOCTYPE svg PUBLIC "-//W3C//DTD SVG 20010904//EN"
 "http://www.w3.org/TR/2001/REC-SVG-20010904/DTD/svg10.dtd">
<svg version="1.0" xmlns="http://www.w3.org/2000/svg"
 width="16.000000pt" height="16.000000pt" viewBox="0 0 16.000000 16.000000"
 preserveAspectRatio="xMidYMid meet">
<metadata>
Created by potrace 1.11, written by Peter Selinger 2001-2013
</metadata>
<g transform="translate(0.000000,16.000000) scale(0.006154,-0.006154)"
fill="#000000" stroke="none">
<path d="M1443 2230 c-226 -19 -327 -31 -341 -41 -11 -8 -141 -149 -288 -314
-147 -165 -337 -376 -423 -468 -86 -93 -162 -180 -170 -194 -10 -20 -15 -114
-22 -382 -9 -395 -9 -395 53 -405 113 -18 480 -44 787 -56 438 -16 914 19 980
73 35 29 53 98 60 230 l6 131 70 11 c110 17 165 57 203 145 43 97 61 509 28
643 -19 79 -48 141 -85 180 -48 52 -76 61 -211 67 l-125 5 -28 185 c-32 214
-36 221 -121 219 -28 -1 -196 -14 -373 -29z m147 -181 c-123 -113 -190 -172
-194 -168 -11 11 -114 194 -112 197 4 3 287 29 336 30 l35 1 -65 -60z m244
-250 c71 -492 106 -845 106 -1064 0 -77 -3 -150 -6 -161 -18 -67 -695 -92
-1304 -49 -113 8 -221 18 -240 21 l-35 6 56 52 c323 293 458 435 726 761 246
298 291 347 464 507 106 98 194 177 195 175 2 -2 19 -113 38 -248z m-618 125
c31 -52 54 -97 52 -100 -5 -4 -341 -53 -345 -50 -4 3 222 245 229 245 4 1 33
-42 64 -95z m-3 -256 c-56 -72 -346 -418 -348 -416 -2 2 -28 191 -48 357 -2
12 38 21 188 42 236 33 220 32 208 17z m966 -23 c30 -39 41 -111 41 -265 0
-175 -17 -335 -39 -360 -9 -11 -36 -22 -63 -25 l-47 -7 -5 33 c-3 19 -8 66
-11 104 -9 102 -55 496 -62 523 -5 22 -3 22 80 22 80 0 87 -2 106 -25z m-1460
-309 c12 -88 20 -161 18 -162 -4 -4 -279 55 -299 64 -14 6 8 34 115 147 99
106 134 137 139 125 4 -8 16 -87 27 -174z m-91 -279 l54 -12 -170 -162 c-94
-90 -173 -163 -176 -163 -3 0 -3 37 -1 83 3 45 8 134 11 198 l6 116 111 -24
c62 -13 136 -29 165 -36z"/>
<path d="M1507 1612 c-27 -30 -20 -70 27 -151 61 -107 119 -225 162 -328 20
-48 41 -93 47 -100 41 -41 117 -9 117 49 0 58 -193 460 -253 526 -25 27 -77
30 -100 4z"/>
<path d="M1192 1253 c-12 -10 -24 -30 -28 -46 -7 -30 -8 -29 172 -197 50 -47
154 -147 232 -224 107 -105 148 -138 167 -138 38 0 65 29 65 70 0 41 -46 91
-313 340 -243 226 -251 232 -295 195z"/>
<path d="M870 920 c-22 -22 -26 -51 -10 -79 13 -26 124 -89 324 -187 178 -87
220 -98 249 -66 21 23 22 75 3 91 -8 7 -97 53 -198 102 -100 50 -208 106 -239
125 -65 39 -100 43 -129 14z"/>
</g>
</svg>
