<svg style="position: absolute; width: 0; height: 0; overflow: hidden;" version="1.1" xmlns="http://www.w3.org/2000/svg" xmlns:xlink="http://www.w3.org/1999/xlink">
<defs>
<symbol id="icon-search" viewBox="0 0 24 24">
<title>search</title>
<path d="M22.8 20.678l-2.099 2.143-4.976-4.873 2.12-2.123 4.955 4.853zM10.75 19.5c1.853 0 3.571-0.576 4.985-1.558 0.825-0.573 1.548-1.285 2.133-2.102 1.027-1.434 1.632-3.192 1.632-5.090 0-4.832-3.918-8.75-8.75-8.75s-8.75 3.918-8.75 8.75c0 4.832 3.918 8.75 8.75 8.75zM10.75 16.5c-3.176 0-5.75-2.574-5.75-5.75s2.574-5.75 5.75-5.75c3.176 0 5.75 2.574 5.75 5.75s-2.574 5.75-5.75 5.75z"></path>
</symbol>
<symbol id="icon-facebook" viewBox="0 0 24 24">
<title>facebook</title>
<path d="M15.418 22.5h5.319c0.97 0 1.763-0.793 1.763-1.763v-17.475c0-0.968-0.793-1.761-1.763-1.761h-17.474c-0.97 0-1.763 0.793-1.763 1.761v17.475c0 0.97 0.793 1.763 1.763 1.763h8.532v-8.87h-1.812v-3.622h1.797v-1.638c0-1.481 0.707-3.799 3.813-3.799l2.799 0.013v3.105h-2.032c-0.332 0-0.802 0.164-0.802 0.869v1.45h2.879l0.006 3.622h-3.024v8.87z"></path>
</symbol>
<symbol id="icon-github" viewBox="0 0 24 24">
<title>github</title>
<path d="M11.999 2c-5.521 0-9.999 4.477-9.999 10 0 4.418 2.865 8.166 6.839 9.488 0.5 0.092 0.683-0.217 0.683-0.482 0-0.238-0.009-0.866-0.014-1.7-2.782 0.604-3.368-1.341-3.368-1.341-0.455-1.155-1.111-1.463-1.111-1.463-0.908-0.62 0.069-0.608 0.069-0.608 1.004 0.071 1.532 1.031 1.532 1.031 0.892 1.528 2.341 1.087 2.91 0.831 0.091-0.646 0.349-1.087 0.635-1.336-2.22-0.252-4.555-1.111-4.555-4.942 0-1.092 0.39-1.985 1.029-2.683-0.103-0.253-0.446-1.27 0.098-2.646 0 0 0.839-0.269 2.75 1.025 0.797-0.222 1.653-0.333 2.503-0.337 0.85 0.004 1.705 0.115 2.503 0.337 1.909-1.294 2.747-1.025 2.747-1.025 0.546 1.376 0.203 2.394 0.1 2.646 0.641 0.699 1.028 1.592 1.028 2.683 0 3.842-2.338 4.687-4.566 4.934 0.359 0.309 0.678 0.919 0.678 1.851 0 1.337-0.012 2.416-0.012 2.743 0 0.268 0.18 0.579 0.688 0.481 3.971-1.325 6.833-5.071 6.833-9.488 0-5.523-4.478-10-10.001-10z"></path>
</symbol>
<symbol id="icon-instagram" viewBox="0 0 24 24">
<title>instagram</title>
<path d="M11.983 1.035c-2.983 0-3.357 0.013-4.528 0.066-1.169 0.053-1.967 0.239-2.666 0.51-0.722 0.281-1.335 0.656-1.945 1.267s-0.986 1.223-1.267 1.945c-0.272 0.699-0.457 1.497-0.511 2.666-0.053 1.171-0.066 1.545-0.066 4.528s0.013 3.357 0.066 4.528c0.053 1.169 0.239 1.967 0.511 2.666 0.281 0.722 0.656 1.335 1.267 1.945s1.223 0.986 1.945 1.267c0.699 0.271 1.497 0.457 2.666 0.51 1.171 0.053 1.545 0.066 4.528 0.066s3.357-0.013 4.528-0.066c1.169-0.053 1.967-0.239 2.666-0.51 0.722-0.281 1.335-0.656 1.945-1.267s0.986-1.223 1.267-1.945c0.272-0.699 0.457-1.497 0.511-2.666 0.053-1.171 0.066-1.545 0.066-4.528s-0.013-3.357-0.066-4.528c-0.053-1.169-0.239-1.967-0.511-2.666-0.281-0.722-0.656-1.335-1.267-1.945s-1.223-0.986-1.945-1.267c-0.699-0.271-1.497-0.457-2.666-0.51-1.171-0.054-1.545-0.066-4.528-0.066zM11.983 3.013c2.933 0 3.28 0.011 4.438 0.064 1.071 0.049 1.652 0.228 2.039 0.378 0.513 0.199 0.879 0.437 1.263 0.822s0.622 0.75 0.822 1.263c0.15 0.387 0.329 0.969 0.378 2.039 0.053 1.158 0.064 1.505 0.064 4.438s-0.011 3.28-0.064 4.438c-0.049 1.071-0.228 1.652-0.378 2.039-0.199 0.513-0.437 0.878-0.822 1.263s-0.75 0.622-1.263 0.822c-0.387 0.15-0.969 0.329-2.039 0.378-1.158 0.053-1.505 0.064-4.438 0.064s-3.28-0.011-4.438-0.064c-1.071-0.049-1.652-0.228-2.039-0.378-0.513-0.199-0.879-0.437-1.263-0.822s-0.622-0.75-0.822-1.263c-0.15-0.387-0.329-0.969-0.378-2.039-0.053-1.158-0.064-1.505-0.064-4.438s0.011-3.28 0.064-4.438c0.049-1.071 0.228-1.652 0.378-2.039 0.199-0.513 0.437-0.878 0.822-1.263s0.75-0.622 1.263-0.822c0.387-0.15 0.969-0.329 2.039-0.378 1.158-0.053 1.505-0.064 4.438-0.064zM11.983 15.678c-2.022 0-3.661-1.639-3.661-3.661s1.639-3.661 3.661-3.661c2.022 0 3.661 1.639 3.661 3.661s-1.639 3.661-3.661 3.661zM11.983 6.378c-3.115 0-5.64 2.525-5.64 5.64s2.525 5.64 5.64 5.64 5.64-2.525 5.64-5.64c0-3.115-2.525-5.64-5.64-5.64zM19.163 6.155c0 0.728-0.59 1.318-1.318 1.318s-1.318-0.59-1.318-1.318c0-0.728 0.59-1.318 1.318-1.318s1.318 0.59 1.318 1.318z"></path>
</symbol>
<symbol id="icon-slack" viewBox="0 0 24 24">
<title>slack</title>
<path d="M21.925 8.917c-2.252-7.508-5.5-9.254-13.008-7.002s-9.254 5.5-7.002 13.008c2.252 7.508 5.5 9.254 13.008 7.002s9.254-5.5 7.002-13.008zM10.124 11.045l2.914-0.976 0.943 2.814-2.914 0.976-0.943-2.814zM18.136 13.788l-1.414 0.471 0.489 1.467c0.192 0.594-0.122 1.24-0.716 1.432-0.122 0.035-0.262 0.070-0.384 0.052-0.454-0.017-0.89-0.314-1.048-0.768l-0.489-1.467-2.916 0.978 0.489 1.467c0.192 0.594-0.122 1.24-0.716 1.432-0.122 0.035-0.262 0.070-0.384 0.052-0.454-0.017-0.89-0.314-1.048-0.768l-0.489-1.467-1.414 0.471c-0.122 0.035-0.262 0.070-0.384 0.052-0.454-0.017-0.89-0.314-1.048-0.768-0.192-0.594 0.122-1.24 0.716-1.432l1.414-0.471-0.943-2.811-1.414 0.471c-0.122 0.035-0.262 0.070-0.384 0.052-0.454-0.017-0.89-0.314-1.048-0.768-0.192-0.594 0.122-1.24 0.716-1.432l1.414-0.471-0.489-1.467c-0.192-0.594 0.122-1.24 0.716-1.432s1.24 0.122 1.432 0.716l0.489 1.467 2.916-0.978-0.489-1.467c-0.192-0.594 0.122-1.24 0.716-1.432s1.24 0.122 1.432 0.716l0.489 1.467 1.414-0.471c0.594-0.192 1.24 0.122 1.432 0.716s-0.122 1.24-0.716 1.432l-1.414 0.471 0.943 2.811 1.414-0.471c0.594-0.192 1.24 0.122 1.432 0.716s-0.122 1.24-0.716 1.432z"></path>
</symbol>
<symbol id="icon-twitter" viewBox="0 0 24 24">
<title>twitter</title>
<path d="M7.919 21.301c8.302 0 12.842-7.040 12.842-13.145 0-0.2-0.004-0.399-0.013-0.597 0.881-0.652 1.647-1.466 2.252-2.392-0.809 0.368-1.679 0.616-2.592 0.727 0.932-0.572 1.647-1.477 1.985-2.556-0.872 0.529-1.838 0.914-2.866 1.121-0.824-0.898-1.997-1.46-3.295-1.46-2.493 0-4.514 2.069-4.514 4.62 0 0.363 0.040 0.715 0.117 1.053-3.751-0.193-7.078-2.032-9.304-4.827-0.388 0.683-0.611 1.476-0.611 2.322 0 1.603 0.797 3.018 2.009 3.846-0.74-0.023-1.436-0.232-2.044-0.578-0.001 0.019-0.001 0.039-0.001 0.059 0 2.238 1.556 4.106 3.621 4.529-0.379 0.106-0.778 0.162-1.19 0.162-0.291 0-0.574-0.029-0.848-0.083 0.575 1.836 2.241 3.171 4.217 3.209-1.545 1.239-3.491 1.978-5.606 1.978-0.364 0-0.723-0.021-1.077-0.064 1.998 1.31 4.369 2.075 6.919 2.075z"></path>
</symbol>
<symbol id="icon-youtube" viewBox="0 0 24 24">
<title>youtube</title>
<path d="M9.729 14.502l-0.001-6.13 5.944 3.076-5.943 3.054zM22.78 7.31c0 0-0.215-1.503-0.875-2.165-0.837-0.869-1.774-0.873-2.204-0.924-3.079-0.221-7.697-0.221-7.697-0.221h-0.010c0 0-4.618 0-7.697 0.221-0.43 0.051-1.367 0.055-2.204 0.924-0.66 0.662-0.874 2.165-0.874 2.165s-0.22 1.765-0.22 3.531v1.655c0 1.765 0.22 3.531 0.22 3.531s0.215 1.503 0.874 2.165c0.837 0.869 1.936 0.841 2.426 0.933 1.76 0.167 7.48 0.219 7.48 0.219s4.623-0.007 7.701-0.228c0.43-0.051 1.368-0.055 2.204-0.924 0.66-0.662 0.875-2.165 0.875-2.165s0.22-1.765 0.22-3.531v-1.655c0-1.765-0.22-3.531-0.22-3.531v0z"></path>
</symbol>
</defs>
</svg>
