<?xml version="1.0" encoding="UTF-8"?>
<svg width="102px" height="134px" viewBox="0 0 102 134" version="1.1" xmlns="http://www.w3.org/2000/svg" xmlns:xlink="http://www.w3.org/1999/xlink">
    <!-- Generator: Sketch 41.2 (35397) - http://www.bohemiancoding.com/sketch -->
    <title>logo strawberry</title>
    <desc>Created with Sketch.</desc>
    <defs>
        <polygon id="path-1" points="101.225687 101.165385 101.225687 0.400536983 0 0.400536983 2.40410047e-20 101.165385"></polygon>
    </defs>
    <g id="Components-and-Styles" stroke="none" stroke-width="1" fill="none" fill-rule="evenodd">
        <g id="flash/success" transform="translate(-129.000000, -59.000000)">
            <g id="logo/pivorak-strawberry" transform="translate(129.000000, 60.000000)">
                <path d="M3.54773739,125.579683 C3.54773739,125.579683 66.5083461,132.637313 95.2670243,125.579683 C103.290433,122.473723 88.6955635,35.0631272 88.6955635,35.0631272 L50.7524504,38.0909947 L4.28479826,89.5212596 L3.54773739,125.579683 Z" id="Fill-1" fill="#D35130" fill-rule="evenodd"></path>
                <path d="M52.3044596,38.0906313 L88.6952974,35.0627722 L63.8605982,57.6918352 L29.3085362,62.3693821 L5.06088522,87.968457 L33.5738765,94.0241921 L29.9075873,66.8151815 L33.5746748,94.0244583 L63.8606922,57.6918225 L52.3043583,38.0906397 L63.8606922,57.6918225 L29.3084139,62.3693987 L52.3044596,38.0906313 Z M33.57432,94.0243695 L3.54729391,122.474078 L5.0613287,87.9686344 L33.57432,94.0243695 Z" id="Combined-Shape" fill="#39B54A" fill-rule="evenodd"></path>
                <g id="Group-15" stroke-width="1" fill-rule="evenodd" transform="translate(0.000000, 31.116517)">
                    <mask id="mask-2" fill="white">
                        <use xlink:href="#path-1"></use>
                    </mask>
                    <g id="Clip-14"></g>
                    <path d="M93.3710661,91.2635841 C69.7035183,96.6262464 23.4877617,92.8352 8.64809217,91.4126702 L36.0133617,65.4850013 C36.0399704,65.4601536 36.0621443,65.4308689 36.0878661,65.4042464 C36.1579357,65.333253 36.2288922,65.263147 36.2918661,65.1877166 C36.29364,65.1850543 36.2963009,65.1832795 36.2989617,65.1806172 L66.4306487,29.0352265 L86.2346139,10.9904848 C87.4284574,18.5912132 89.4409617,31.9237695 91.1270661,45.645902 C95.4181617,80.5844053 94.0726487,89.2172 93.3710661,91.2635841 L93.3710661,91.2635841 Z M8.42191826,61.1943391 L23.6553965,64.4307497 L26.2311183,64.9773987 L7.47642261,82.7452662 L8.42191826,61.1943391 Z M64.6993096,21.0103126 L61.0273096,14.783306 L58.2325096,10.0427232 L78.5952574,8.34864371 L64.6993096,21.0103126 Z M58.0905965,23.7746172 L38.8063878,26.3853987 L51.6406487,12.8354252 L57.6905791,23.0984053 L58.0905965,23.7746172 Z M12.3502487,54.7712132 L21.237553,44.9341934 L26.7836922,39.0790146 L27.7815183,46.4836238 L29.3851357,58.3892132 L14.4106487,55.2087099 L12.3502487,54.7712132 Z M55.286927,31.318551 L36.0133617,54.4402066 L33.5618139,36.2561404 L33.2983878,34.2949483 L45.7503704,32.6088556 L55.286927,31.318551 Z M101.171849,78.9107364 C100.956318,71.1671338 100.062266,60.6397033 98.512753,47.6204053 C95.8873617,25.5521139 92.231327,3.58055099 92.1949617,3.36135894 C92.1878661,3.32142517 92.1710139,3.28504106 92.1639183,3.24510728 C92.1364226,3.1119947 92.1009443,2.98154437 92.0592574,2.85109404 C92.0344226,2.77388874 92.0104748,2.69757086 91.9812052,2.62391523 C91.9679009,2.59285563 91.9616922,2.56002119 91.9483878,2.52896159 C91.9102487,2.44288212 91.8605791,2.3647894 91.8171183,2.28314702 C91.7780922,2.21037881 91.7452748,2.13672318 91.7018139,2.06750464 C91.6202139,1.9370543 91.5279704,1.81725298 91.4312922,1.69922649 C91.3692052,1.62202119 91.3035704,1.5501404 91.2343878,1.47914702 C91.1350487,1.37709404 91.0357096,1.27859073 90.9266139,1.18984901 C90.8574313,1.13394172 90.78204,1.08602119 90.7084226,1.03543841 C90.61884,0.973319205 90.5292574,0.912087417 90.4334661,0.857954967 C90.352753,0.811809272 90.2676052,0.771875497 90.1815704,0.731941722 C90.0840052,0.687570861 89.985553,0.645862252 89.8826661,0.609478146 C89.7966313,0.57930596 89.7105965,0.550021192 89.6210139,0.526060927 C89.5048226,0.494113907 89.3859704,0.471928477 89.2644574,0.452405298 C89.1864052,0.439981457 89.10924,0.424007947 89.028527,0.416021192 C88.8413791,0.398272848 88.6506835,0.395610596 88.4582139,0.408921854 C88.4422487,0.409809272 88.4280574,0.40714702 88.4129791,0.408034437 L88.4014487,0.408921854 L88.3925791,0.409809272 L50.4698661,3.43590199 C49.5678313,3.50778278 48.7269965,3.92220662 48.1194313,4.59398146 L16.037327,40.1039815 L2.48551826,54.4100344 C2.47310087,54.4233457 2.46245739,54.4393192 2.45004,54.4535179 C2.43496174,54.4694914 2.42165739,54.4881272 2.40657913,54.5049881 C2.28506609,54.6425377 2.17685739,54.7889616 2.07929217,54.9415974 C2.07397043,54.9495841 2.06953565,54.9575709 2.06421391,54.966445 C1.8442487,55.3169748 1.68370957,55.6994517 1.59678783,56.0987894 C1.06284,56.7226437 0.75417913,57.5088954 0.738213913,58.3324185 L0.120005217,88.5276768 L0.00292695652,91.2014649 C-0.00682956522,91.4410675 0.0144573913,91.6762331 0.0508226087,91.907849 L0.000266086957,94.389955 C-0.036986087,96.2260212 1.32981391,97.7869881 3.15250957,97.991094 C4.85901391,98.1818887 31.9307009,101.165385 58.5340748,101.165385 C72.4078487,101.165385 86.1592226,100.353399 96.1126487,97.9103391 C96.2598835,97.873955 96.4053443,97.8278093 96.5472574,97.7736768 C100.260944,96.3360609 101.514214,91.2236503 101.171849,78.9107364 L101.171849,78.9107364 Z" id="Fill-13" fill="#44002F" mask="url(#mask-2)"></path>
                </g>
                <path d="M79.0334139,66.5984742 L74.5773443,63.2546861" id="Fill-16" fill="#FBB03B" fill-rule="evenodd"></path>
                <path d="M79.0308417,70.148143 C78.290233,70.148143 77.5425287,69.9174146 76.9056939,69.4382093 L72.4478504,66.0944212 C70.8814852,64.917706 70.5630678,62.6938384 71.7382852,61.1248848 C72.9143896,59.5568185 75.1397635,59.2391232 76.7052417,60.414951 L81.1621983,63.7587391 C82.7294504,64.9345669 83.0469809,67.1593219 81.8717635,68.7282755 C81.1746157,69.6582887 80.1093809,70.148143 79.0308417,70.148143" id="Fill-18" fill="#44002F" fill-rule="evenodd"></path>
                <path d="M85.2421096,92.3335735 L79.0334139,88.9897854" id="Fill-20" fill="#FBB03B" fill-rule="evenodd"></path>
                <path d="M85.2386504,95.8841298 C84.6709983,95.8841298 84.0953635,95.7474675 83.5605287,95.459057 L77.351833,92.1161563 C75.6267026,91.1870305 74.9809983,89.0341563 75.9087548,87.3081298 C76.8373983,85.5821033 78.9891548,84.9351762 80.7142852,85.864302 L86.9229809,89.2080901 C88.6489983,90.1363285 89.2947026,92.2892026 88.3660591,94.0161166 C87.7256765,95.2070305 86.5025635,95.8841298 85.2386504,95.8841298" id="Fill-22" fill="#44002F" fill-rule="evenodd"></path>
                <path d="M40.7686904,115.604848 L33.7085165,112.92396" id="Fill-24" fill="#FBB03B" fill-rule="evenodd"></path>
                <path d="M40.7678035,119.155404 C40.34916,119.155404 39.9243078,119.080861 39.5100991,118.923788 L32.4499252,116.243788 C30.61836,115.548053 29.6968122,113.498119 30.3912991,111.665603 C31.0857861,109.831311 33.1355426,108.910172 34.9671078,109.60502 L42.0272817,112.285907 C43.858847,112.981642 44.7803948,115.031576 44.0859078,116.864093 C43.5484122,118.283073 42.1993513,119.155404 40.7678035,119.155404" id="Fill-26" fill="#44002F" fill-rule="evenodd"></path>
                <path d="M82.1611774,114.636853 L78.0519078,110.884853" id="Fill-28" fill="#FBB03B" fill-rule="evenodd"></path>
                <path d="M82.1602904,118.186522 C81.3061513,118.186522 80.4502383,117.879475 79.7699426,117.259171 L75.660673,113.508058 C74.21316,112.185807 74.11116,109.940641 75.4309513,108.492376 C76.7516296,107.044111 78.9956296,106.942946 80.4431426,108.262535 L84.5524122,112.014535 C85.9999252,113.335899 86.1019252,115.581065 84.7821339,117.02933 C84.0823252,117.796946 83.1226383,118.186522 82.1602904,118.186522" id="Fill-30" fill="#44002F" fill-rule="evenodd"></path>
                <path d="M60.8742209,104.875264 L56.7649513,101.123264" id="Fill-32" fill="#FBB03B" fill-rule="evenodd"></path>
                <path d="M60.8733339,108.424932 C60.0191948,108.424932 59.1632817,108.117886 58.4829861,107.497581 L54.3737165,103.746469 C52.9262035,102.424217 52.8242035,100.179052 54.1439948,98.7307868 C55.464673,97.2825219 57.70956,97.1822437 59.1561861,98.5009457 L63.2654557,102.252946 C64.7129687,103.57431 64.8149687,105.819475 63.4951774,107.26774 C62.7953687,108.035356 61.8356817,108.424932 60.8733339,108.424932" id="Fill-34" fill="#44002F" fill-rule="evenodd"></path>
                <path d="M62.6481339,83.5768066 L58.5388643,79.825694" id="Fill-36" fill="#FBB03B" fill-rule="evenodd"></path>
                <path d="M62.647247,87.1269192 C61.7931078,87.1269192 60.9371948,86.8198728 60.2568991,86.1986808 L56.1476296,82.4484556 C54.7001165,81.126204 54.5972296,78.8810384 55.9179078,77.4327735 C57.2385861,75.9845086 59.483473,75.883343 60.9300991,77.2029325 L65.0393687,80.954045 C66.4868817,82.2762967 66.5897687,84.5205748 65.2690904,85.9688397 C64.5692817,86.737343 63.6095948,87.1269192 62.647247,87.1269192" id="Fill-38" fill="#44002F" fill-rule="evenodd"></path>
                <path d="M46.5849965,2.54842649 C46.5849965,2.54842649 45.4718661,10.8812742 46.5849965,19.9080821" id="Fill-40" fill="#FFFCF9" fill-rule="evenodd"></path>
                <polygon id="Clip-43" points="49.2461456 -0.112582781 43.4267319 -0.112582781 43.4267319 22.5707775 49.2461456 22.5707775 49.2461456 -0.112582781"></polygon>
                <path d="M46.5815374,22.5707775 C45.2573113,22.5707775 44.1104765,21.5830821 43.9437287,20.2342079 C42.8022157,10.9740093 43.9002678,2.54975762 43.9472765,2.19567815 C44.14152,0.738539073 45.4852591,-0.27844106 46.935433,-0.0903086093 C48.3918157,0.104035762 49.4153635,1.44226093 49.2228939,2.8994 C49.2122504,2.98015497 48.1709635,11.0254795 49.2255548,19.5819563 C49.4064939,21.0408702 48.3696417,22.3702212 46.9105983,22.5503669 C46.7997287,22.5636781 46.690633,22.5707775 46.5815374,22.5707775" id="Fill-42" fill="#FCF7EF" fill-rule="evenodd"></path>
                <path d="M13.7641461,31.5134583 L30.61632,31.5134583" id="Fill-45" fill="#FFFCF9" fill-rule="evenodd"></path>
                <path d="M30.61632,34.1757099 L13.7641461,34.1757099 C12.2944591,34.1757099 11.1032765,32.9839086 11.1032765,31.5134583 C11.1032765,30.0430079 12.2944591,28.8512066 13.7641461,28.8512066 L30.61632,28.8512066 C32.086007,28.8512066 33.2771896,30.0430079 33.2771896,31.5134583 C33.2771896,32.9839086 32.086007,34.1757099 30.61632,34.1757099" id="Fill-47" fill="#FCF7EF" fill-rule="evenodd"></path>
                <path d="M58.6801565,25.1160675 L72.9096,17.1302" id="Fill-49" fill="#FFFCF9" fill-rule="evenodd"></path>
                <path d="M58.6828174,27.7787629 C57.751513,27.7787629 56.8477043,27.2889086 56.3598783,26.4183523 C55.6405565,25.1360344 56.0964522,23.5129483 57.3781043,22.7941404 L71.6075478,14.8082728 C72.890087,14.0894649 74.5114435,14.5455974 75.2298783,15.8279152 C75.9492,17.1111205 75.4933043,18.7333192 74.2116522,19.4530146 L59.9822087,27.4379947 C59.5697739,27.6687232 59.1236348,27.7787629 58.6828174,27.7787629" id="Fill-51" fill="#FCF7EF" fill-rule="evenodd"></path>
            </g>
        </g>
    </g>
</svg>