<?xml version="1.0" encoding="UTF-8"?>
<svg width="102px" height="133px" viewBox="0 0 102 133" version="1.1" xmlns="http://www.w3.org/2000/svg" xmlns:xlink="http://www.w3.org/1999/xlink">
    <!-- Generator: Sketch 41.2 (35397) - http://www.bohemiancoding.com/sketch -->
    <title>logo/pivorak crap</title>
    <desc>Created with Sketch.</desc>
    <defs>
        <path d="M101.171849,110.027253 C100.956318,102.28365 100.062266,91.7562199 98.512753,78.7369219 C95.8873617,56.6686305 92.231327,34.6970675 92.1949617,34.4778755 C92.1878661,34.4379417 92.1710139,34.4015576 92.1639183,34.3616238 C92.1364226,34.2285113 92.1009443,34.0980609 92.0592574,33.9676106 C92.0344226,33.8904053 92.0104748,33.8140874 91.9812052,33.7404318 C91.9679009,33.7093722 91.9616922,33.6765377 91.9483878,33.6454781 C91.9102487,33.5593987 91.8605791,33.481306 91.8171183,33.3996636 C91.7780922,33.3268954 91.7452748,33.2532397 91.7018139,33.1840212 C91.6202139,33.0535709 91.5279704,32.9337695 91.4312922,32.815743 C91.3692052,32.7385377 91.3035704,32.666657 91.2343878,32.5956636 C91.1350487,32.4936106 91.0357096,32.3951073 90.9266139,32.3063656 C90.8574313,32.2504583 90.78204,32.2025377 90.7084226,32.151955 C90.61884,32.0898358 90.5292574,32.028604 90.4334661,31.9744715 C90.352753,31.9283258 90.2676052,31.8883921 90.1815704,31.8484583 C90.0840052,31.8040874 89.985553,31.7623788 89.8826661,31.7259947 C89.7966313,31.6958225 89.7105965,31.6665377 89.6210139,31.6425775 C89.5048226,31.6106305 89.3859704,31.588445 89.2644574,31.5689219 C89.1864052,31.556498 89.10924,31.5405245 89.028527,31.5325377 C88.8413791,31.5147894 88.6506835,31.5121272 88.4582139,31.5254384 C88.4422487,31.5263258 88.4280574,31.5236636 88.4129791,31.524551 L88.4014487,31.5254384 L88.3925791,31.5263258 L50.4698661,34.5524185 C49.5678313,34.6242993 48.7269965,35.0387232 48.1194313,35.710498 L16.037327,71.220498 L2.48551826,85.526551 C2.47310087,85.5398623 2.46245739,85.5558358 2.45004,85.5700344 C2.43496174,85.5860079 2.42165739,85.6046437 2.40657913,85.6215046 C2.28506609,85.7590543 2.17685739,85.9054781 2.07929217,86.0581139 C2.07397043,86.0661007 2.06953565,86.0740874 2.06421391,86.0829616 C1.8442487,86.4334914 1.68370957,86.8159682 1.59678783,87.215306 C1.06284,87.8391603 0.75417913,88.6254119 0.738213913,89.4489351 L0.120005217,119.644193 L0.00292695652,122.317981 C-0.00682956522,122.557584 0.0144573913,122.79275 0.0508226087,123.024366 L0.000266086957,125.506472 C-0.036986087,127.342538 1.32981391,128.903505 3.15250957,129.107611 C4.85901391,129.298405 31.9307009,132.281902 58.5340748,132.281902 C72.4078487,132.281902 86.1592226,131.469915 96.1126487,129.026856 C96.2598835,128.990472 96.4053443,128.944326 96.5472574,128.890193 C100.260944,127.452577 101.514214,122.340167 101.171849,110.027253 L101.171849,110.027253 Z" id="path-1"></path>
        <mask id="mask-2" maskContentUnits="userSpaceOnUse" maskUnits="objectBoundingBox" x="0" y="0" width="101.226397" height="100.764848" fill="white">
            <use xlink:href="#path-1"></use>
        </mask>
    </defs>
    <g id="Logos-and-Glyphs" stroke="none" stroke-width="1" fill="none" fill-rule="evenodd">
        <g id="logo/pivorak-crap">
            <path d="M101.171849,110.027253 C100.956318,102.28365 100.062266,91.7562199 98.512753,78.7369219 C95.8873617,56.6686305 92.231327,34.6970675 92.1949617,34.4778755 C92.1878661,34.4379417 92.1710139,34.4015576 92.1639183,34.3616238 C92.1364226,34.2285113 92.1009443,34.0980609 92.0592574,33.9676106 C92.0344226,33.8904053 92.0104748,33.8140874 91.9812052,33.7404318 C91.9679009,33.7093722 91.9616922,33.6765377 91.9483878,33.6454781 C91.9102487,33.5593987 91.8605791,33.481306 91.8171183,33.3996636 C91.7780922,33.3268954 91.7452748,33.2532397 91.7018139,33.1840212 C91.6202139,33.0535709 91.5279704,32.9337695 91.4312922,32.815743 C91.3692052,32.7385377 91.3035704,32.666657 91.2343878,32.5956636 C91.1350487,32.4936106 91.0357096,32.3951073 90.9266139,32.3063656 C90.8574313,32.2504583 90.78204,32.2025377 90.7084226,32.151955 C90.61884,32.0898358 90.5292574,32.028604 90.4334661,31.9744715 C90.352753,31.9283258 90.2676052,31.8883921 90.1815704,31.8484583 C90.0840052,31.8040874 89.985553,31.7623788 89.8826661,31.7259947 C89.7966313,31.6958225 89.7105965,31.6665377 89.6210139,31.6425775 C89.5048226,31.6106305 89.3859704,31.588445 89.2644574,31.5689219 C89.1864052,31.556498 89.10924,31.5405245 89.028527,31.5325377 C88.8413791,31.5147894 88.6506835,31.5121272 88.4582139,31.5254384 C88.4422487,31.5263258 88.4280574,31.5236636 88.4129791,31.524551 L88.4014487,31.5254384 L88.3925791,31.5263258 L50.4698661,34.5524185 C49.5678313,34.6242993 48.7269965,35.0387232 48.1194313,35.710498 L16.037327,71.220498 L2.48551826,85.526551 C2.47310087,85.5398623 2.46245739,85.5558358 2.45004,85.5700344 C2.43496174,85.5860079 2.42165739,85.6046437 2.40657913,85.6215046 C2.28506609,85.7590543 2.17685739,85.9054781 2.07929217,86.0581139 C2.07397043,86.0661007 2.06953565,86.0740874 2.06421391,86.0829616 C1.8442487,86.4334914 1.68370957,86.8159682 1.59678783,87.215306 C1.06284,87.8391603 0.75417913,88.6254119 0.738213913,89.4489351 L0.120005217,119.644193 L0.00292695652,122.317981 C-0.00682956522,122.557584 0.0144573913,122.79275 0.0508226087,123.024366 L0.000266086957,125.506472 C-0.036986087,127.342538 1.32981391,128.903505 3.15250957,129.107611 C4.85901391,129.298405 31.9307009,132.281902 58.5340748,132.281902 C72.4078487,132.281902 86.1592226,131.469915 96.1126487,129.026856 C96.2598835,128.990472 96.4053443,128.944326 96.5472574,128.890193 C100.260944,127.452577 101.514214,122.340167 101.171849,110.027253 L101.171849,110.027253 Z" id="Path" fill="#5D2A1F"></path>
            <use id="Path" stroke="#35170D" mask="url(#mask-2)" stroke-width="14" xlink:href="#path-1"></use>
            <g id="Group-3" transform="translate(6.500000, 53.500000) rotate(15.000000) translate(-6.500000, -53.500000) translate(3.000000, 50.000000)">
                <path d="M1.83076923,7 C0.819574359,7 1.24344979e-14,6.10466667 1.24344979e-14,5 C1.24344979e-14,3.89533333 0.819574359,3 1.83076923,3 L5.16923077,3 C6.18042564,3 7,3.89533333 7,5 C7,6.10466667 6.18042564,7 5.16923077,7 L1.83076923,7 Z" id="Fill-47" fill="#44002F" transform="translate(3.500000, 5.000000) scale(-1, 1) translate(-3.500000, -5.000000) "></path>
                <ellipse id="Oval" stroke="#44002F" transform="translate(2.500000, 2.000000) scale(-1, 1) translate(-2.500000, -2.000000) " cx="2.5" cy="2" rx="1.5" ry="2"></ellipse>
                <ellipse id="Oval" stroke="#44002F" transform="translate(5.500000, 2.000000) scale(-1, 1) translate(-5.500000, -2.000000) " cx="5.5" cy="2" rx="1.5" ry="2"></ellipse>
            </g>
            <g id="Group-2" transform="translate(20.000000, 4.000000)">
                <path d="M2.35384615,8.32450331 C1.05373846,8.32450331 1.59872116e-14,7.13270199 1.59872116e-14,5.66225166 C1.59872116e-14,4.19180132 1.05373846,3 2.35384615,3 L6.64615385,3 C7.94626154,3 9,4.19180132 9,5.66225166 C9,7.13270199 7.94626154,8.32450331 6.64615385,8.32450331 L2.35384615,8.32450331 Z" id="Fill-47" fill="#44002F"></path>
                <ellipse id="Oval" stroke="#44002F" cx="7.5" cy="2" rx="1.5" ry="2"></ellipse>
                <ellipse id="Oval" stroke="#44002F" cx="4.5" cy="2" rx="1.5" ry="2"></ellipse>
            </g>
            <g id="Group-4" transform="translate(93.017037, 19.129410) rotate(-15.000000) translate(-93.017037, -19.129410) translate(88.017037, 14.129410)">
                <path d="M2.61538462,9 C1.17082051,9 -6.03961325e-14,7.88083333 -6.03961325e-14,6.5 C-6.03961325e-14,5.11916667 1.17082051,4 2.61538462,4 L7.38461538,4 C8.82917949,4 10,5.11916667 10,6.5 C10,7.88083333 8.82917949,9 7.38461538,9 L2.61538462,9 Z" id="Fill-47" fill="#44002F"></path>
                <ellipse id="Oval" stroke="#44002F" cx="5.27525513" cy="2.70710678" rx="1.5" ry="2"></ellipse>
                <ellipse id="Oval" stroke="#44002F" cx="2.24118095" cy="2.96592583" rx="1.5" ry="2"></ellipse>
            </g>
            <path d="M37,81.9363897 C59.3076923,68.8261682 95,78.3261682 95,78.3261682" id="Path-3" stroke="#3A1307" stroke-width="7"></path>
            <path d="M3.5,91 C39,87 61.5,107.5 61.5,107.5" id="Path-3" stroke="#3A1307" stroke-width="7"></path>
            <path d="M38.4307643,49.0911936 C43.9307643,64.0911936 67.9307643,65.5911936 67.9307643,65.5911936" id="Path-3" stroke="#3A1307" stroke-width="7" transform="translate(53.180764, 57.341194) scale(1, -1) rotate(-26.000000) translate(-53.180764, -57.341194) "></path>
            <path d="M47,20.5 C47,20.5 48,18 48,15 C48,12 43,8.5 45.5,4.5" id="Path-4" stroke="#BA472A" stroke-width="5" stroke-linecap="round" stroke-linejoin="round"></path>
            <path d="M70.8219955,27 C70.8219955,27 72.3219955,26 72.3219955,23 C72.3219955,20 68.3219955,17 70.8219955,13" id="Path-4" stroke="#BA472A" stroke-width="5" stroke-linecap="round" stroke-linejoin="round"></path>
            <path d="M25.0394858,43 C25.0394858,43 20.5,37 25.0995179,30 C26,28.5 26.5,28 26,24.5" id="Path-4" stroke="#BA472A" stroke-width="5" stroke-linecap="round" stroke-linejoin="round"></path>
        </g>
    </g>
</svg>