<?xml version="1.0" encoding="UTF-8"?>
<svg width="117px" height="131px" viewBox="0 0 117 131" version="1.1" xmlns="http://www.w3.org/2000/svg" xmlns:xlink="http://www.w3.org/1999/xlink">
    <!-- Generator: Sketch 41.2 (35397) - http://www.bohemiancoding.com/sketch -->
    <title>Page 1</title>
    <desc>Created with Sketch.</desc>
    <defs></defs>
    <g id="Logos-and-Glyphs" stroke="none" stroke-width="1" fill="none" fill-rule="evenodd">
        <g id="logo-mono" transform="translate(0.000000, -1.000000)" fill="#FFF4D9">
            <g id="Page-1" transform="translate(0.000000, 1.000000)">
                <path d="M84.4979239,95.9642075 C83.0782075,95.9642075 81.7431851,95.0933146 81.2210507,93.6871581 C81.1791403,93.5729569 76.8911776,82.1101228 69.0513045,69.3928193 C68.0393418,67.7530299 68.5509985,65.6050016 70.1942373,64.5954981 C71.836603,63.5842511 73.988006,64.0968487 74.9990955,65.7366381 C83.2214015,79.0746381 87.5914388,90.7763358 87.7730507,91.2680111 C88.4418716,93.0743075 87.5172224,95.0784946 85.7089612,95.7471381 C85.3099388,95.8944664 84.8995657,95.9642075 84.4979239,95.9642075" id="Fill-1"></path>
                <path d="M62.8639254,119.405699 C62.3985448,119.405699 61.925306,119.313292 61.4712761,119.115401 C60.8242836,118.833821 45.513,112.157847 36.4367687,106.422507 C34.8066269,105.392953 34.3220373,103.238822 35.353209,101.611238 C36.3843806,99.9845248 38.5436418,99.4998236 40.1720373,100.53025 C48.7986045,105.980522 64.1063955,112.653881 64.2600672,112.721007 C66.0281642,113.489904 66.8384328,115.543781 66.0683284,117.309977 C65.4955522,118.622854 64.2111716,119.405699 62.8639254,119.405699" id="Fill-3"></path>
                <path d="M81.3959396,115.183045 C80.4913724,115.183045 79.5868052,114.834339 78.903141,114.137799 C78.7503425,113.983497 63.5612978,98.5428004 52.571156,89.1809192 C51.1042903,87.9308086 50.9296634,85.7296027 52.1817381,84.265038 C53.4338127,82.8004733 55.6376037,82.6252486 57.1062157,83.8753592 C68.33385,93.4412333 83.2592082,108.613426 83.8887381,109.254173 C85.2394769,110.628946 85.2185216,112.837126 83.8415888,114.184874 C83.1614172,114.850903 82.2786784,115.183045 81.3959396,115.183045" id="Fill-5"></path>
                <path d="M106.133581,92.2762069 C106.102149,92.5002505 106.085559,92.7269093 106.085559,92.9518246 C106.085559,94.8095552 105.14694,96.8869705 103.891372,96.8869705 C103.648641,96.8869705 103.407656,96.9052775 103.168417,96.9418916 L99.0044396,97.5747928 C98.5582679,91.7697116 97.8824619,85.2672187 96.9778948,77.6785069 C96.3509843,72.4226375 95.6647007,66.8110881 94.983656,62.4522646 L103.018238,62.4522646 C104.714738,62.4522646 105.71535,64.5872164 106.25582,66.5617634 C108.181954,73.5942893 106.820738,87.448374 106.133581,92.2762069 L106.133581,92.2762069 Z M91.9163351,120.535332 C83.8765142,122.352089 72.4087679,123.475794 57.7968649,123.475794 L57.7916261,123.475794 C37.8003425,123.475794 17.1446037,121.534374 8.31634254,120.665225 L35.4524843,95.0091893 C35.534559,94.9316022 35.606156,94.8461693 35.6786261,94.7633516 C35.6960888,94.7433011 35.717044,94.7302246 35.7336336,94.710174 L65.3948799,59.2023258 L84.8832381,41.4819646 C86.0576037,48.9512446 88.0439843,62.1122764 89.7073052,75.622014 C91.103447,86.9689034 91.8910142,95.4895316 92.2978948,101.902233 C92.2114545,102.40001 92.1983575,102.920454 92.2786858,103.447 C92.3092455,103.652736 92.3686187,103.844525 92.4244993,104.038056 C93.0391858,115.368382 92.3520291,119.266042 91.9163351,120.535332 L91.9163351,120.535332 Z M74.9068052,39.0846116 L77.3576933,38.8919516 L63.6913948,51.3189575 L60.0757455,45.2009128 L57.3253724,40.5439458 L74.9068052,39.0846116 Z M54.4256933,61.4445046 L35.4524843,84.158334 L35.0071858,80.8621916 L32.7798201,64.3684034 L45.0368799,62.7129222 L54.4256933,61.4445046 Z M38.2019843,56.5983646 L50.8353649,43.2882611 L56.7927604,53.3693481 L57.1847978,54.0345046 L38.2019843,56.5983646 Z M8.29014851,90.7942069 L25.8226858,94.5096681 L7.36026045,111.965013 L8.29014851,90.7942069 Z M26.3657754,69.0689587 L27.598641,78.1972069 L28.9275515,88.0385587 L12.2375888,84.5009375 L22.5702604,73.0677434 L26.3657754,69.0689587 Z M115.520649,64.0336458 C113.538634,56.7953834 108.982619,52.8628528 103.018238,52.8628528 L93.6198201,52.8628528 C92.1843873,42.499314 91.0021634,35.6088858 90.7934843,34.4049787 C90.7751485,33.9856599 90.6904545,33.5645975 90.5149545,33.162714 C89.9177306,31.7940434 88.5084918,30.9562775 87.0241634,31.0809399 L63.5036709,33.0336928 L49.6837007,34.1146811 C48.7957231,34.185294 47.9679918,34.5714858 47.3698948,35.2314116 L16.8905216,68.8963493 L2.44713358,84.1060281 C1.98000672,84.5968316 1.68837985,85.1983493 1.56701418,85.8347375 C1.04487985,86.4475881 0.742775373,87.2347916 0.726185821,88.0403022 L0.121976866,117.56087 L0.00323059701,120.271187 C-0.00724701493,120.511794 0.0154544776,120.744555 0.0521261194,120.975573 L0.00061119403,123.508921 C-0.0360604478,125.312602 1.30856642,126.945418 3.1037306,127.145923 C3.38051418,127.176435 31.154044,130.449912 57.7916261,130.449912 L57.7968649,130.449912 C73.6049619,130.449912 85.9938649,129.176263 94.6151933,127.064849 C94.7601336,127.029107 94.9033276,126.782398 95.0430291,126.728348 C98.6979694,125.316089 99.9317082,120.293853 99.5955515,108.198118 C99.585947,107.869462 99.5737231,107.528602 99.5623724,107.189486 L104.301746,106.468536 C111.308649,106.224442 115.532872,99.8309199 115.685671,93.4217058 C116.04191,90.7985658 118.199425,73.8157175 115.520649,64.0336458 L115.520649,64.0336458 Z" id="Fill-7"></path>
                <path d="M45.8557052,22.2839622 C44.5521157,22.2839622 43.423153,21.3136881 43.2590037,19.987734 C42.1352799,10.8917411 43.2162201,2.61520694 43.2624963,2.26824459 C43.4537127,0.836806941 44.7782575,-0.164850706 46.2040858,0.0225787059 C47.6377724,0.213495176 48.6453694,1.52811635 48.4558993,2.959554 C48.4454216,3.03888459 47.4203619,10.9414316 48.4585187,19.3478587 C48.6366381,20.7810399 47.615944,22.0860716 46.1796381,22.2639116 C46.0704963,22.2769881 45.9631007,22.2839622 45.8557052,22.2839622" id="Fill-10"></path>
                <path d="M30.1392873,33.6841165 L13.5497351,33.6841165 C12.1029515,33.6841165 10.9303321,32.5124647 10.9303321,31.0688224 C10.9303321,29.6243082 12.1029515,28.4535282 13.5497351,28.4535282 L30.1392873,28.4535282 C31.5860709,28.4535282 32.7586903,29.6243082 32.7586903,31.0688224 C32.7586903,32.5124647 31.5860709,33.6841165 30.1392873,33.6841165" id="Fill-12"></path>
                <path d="M57.7684007,27.3995647 C56.8516097,27.3995647 55.9618858,26.9183506 55.4816619,26.0640212 C54.77355,24.8034494 55.222341,23.2089918 56.4840201,22.5028624 L70.4917142,14.6587235 C71.7551396,13.9517224 73.350356,14.4006812 74.0575948,15.6595094 C74.7657067,16.9200812 74.3169157,18.5145388 73.0552366,19.2206682 L59.0475425,27.0648071 C58.6415351,27.2923376 58.2023485,27.3995647 57.7684007,27.3995647" id="Fill-14"></path>
            </g>
        </g>
    </g>
</svg>