<?xml version="1.0" encoding="UTF-8"?>
<svg width="101px" height="71px" viewBox="0 0 101 71" version="1.1" xmlns="http://www.w3.org/2000/svg" xmlns:xlink="http://www.w3.org/1999/xlink">
    <!-- Generator: Sketch 43.1 (39012) - http://www.bohemiancoding.com/sketch -->
    <title>Path</title>
    <desc>Created with Sketch.</desc>
    <defs></defs>
    <g id="LG-1440-v2" stroke="none" stroke-width="1" fill="none" fill-rule="evenodd">
        <g id="LG-1440-talk" transform="translate(-670.000000, -318.000000)" fill="#000000">
            <g id="btn-play" transform="translate(670.000000, 318.000000)">
                <path d="M95.6277068,5.66937783 C91.8009907,1.69221982 87.5116244,1.67247236 85.5445729,1.43970651 C71.4624113,0.429555497 50.3384299,0.429555497 50.3384299,0.429555497 C50.294687,0.429555497 29.1711983,0.429555497 15.088544,1.43970651 C13.121394,1.67247236 8.83360402,1.69221982 5.00550862,5.66937783 C1.9882333,8.69963535 1.0063824,15.5808431 1.0063824,15.5808431 C1.0063824,15.5808431 0,23.6616602 0,31.7423795 L0,39.3180721 C0,47.3986937 1.0063824,55.479413 1.0063824,55.479413 C1.0063824,55.479413 1.9882333,62.3607185 5.00550862,65.390976 C8.83360402,69.3682318 13.8620678,69.2424151 16.1017243,69.6592624 C24.152488,70.4253075 50.316657,70.6623747 50.316657,70.6623747 C50.316657,70.6623747 71.4624113,70.6307984 85.5445729,69.6207451 C87.5116244,69.3878815 91.8009907,69.3682318 95.6277068,65.390976 C98.6451792,62.3607185 99.6284094,55.479413 99.6284094,55.479413 C99.6284094,55.479413 100.633314,47.3986937 100.633314,39.3180721 L100.633314,31.7423795 C100.633314,23.6616602 99.6284094,15.5808431 99.6284094,15.5808431 C99.6284094,15.5808431 98.6451792,8.69963535 95.6277068,5.66937783 Z" id="Path"></path>
            </g>
        </g>
    </g>
</svg>